<?xml version="1.0" encoding="utf-8"?>
<!-- Generator: Adobe Illustrator 19.0.0, SVG Export Plug-In . SVG Version: 6.00 Build 0)  -->
<svg version="1.1" id="Calque_1" xmlns="http://www.w3.org/2000/svg" xmlns:xlink="http://www.w3.org/1999/xlink" x="0px" y="0px"
	 width="11.3px" height="12.7px" viewBox="0 0 11.3 12.7" style="enable-background:new 0 0 11.3 12.7;" xml:space="preserve">
	<path d="M5.6,11.7c0,0-0.2,0-0.6,0c-0.4,0-1-0.1-1.6-0.4c-0.6-0.3-1.3-0.7-1.9-1.3
		C0.9,9.4,0.4,8.5,0.2,7.6C0.1,7.2,0,6.7,0,6.2c0-0.4,0.1-0.9,0.2-1.4C0.4,4,0.8,3.2,1.2,2.7c0.5-0.6,0.9-1,1.3-1.2
		c0.4-0.2,0.6-0.3,0.6-0.3l0.4,0.8c0,0-0.2,0.1-0.5,0.3c-0.3,0.2-0.7,0.5-1.2,1C1.4,3.6,1,4.2,0.7,5C0.6,5.4,0.5,5.8,0.5,6.2
		c0,0.4,0,0.9,0.1,1.3c0.2,0.8,0.6,1.7,1.1,2.3c0.5,0.6,1.2,1.1,1.8,1.4c0.6,0.3,1.2,0.4,1.5,0.5C5.4,11.7,5.6,11.7,5.6,11.7z"/>
	<path d="M5.6,1c-1,0.7-2.2,1.7-2.8,2.7l0.2-2L1.8,0C2.9,0.5,4.4,0.9,5.6,1z"/>
	<path d="M5.6,1c0,0,0.2,0,0.6,0c0.4,0,1,0.1,1.6,0.4c0.6,0.3,1.3,0.7,1.9,1.3
		c0.6,0.6,1.1,1.5,1.3,2.4c0.1,0.5,0.2,0.9,0.2,1.4c0,0.4-0.1,0.9-0.2,1.4C10.9,8.7,10.5,9.5,10,10c-0.5,0.6-0.9,1-1.3,1.2
		c-0.4,0.2-0.6,0.3-0.6,0.3l-0.4-0.8c0,0,0.2-0.1,0.5-0.3c0.3-0.2,0.7-0.5,1.2-1c0.4-0.5,0.8-1.1,1.1-1.9c0.1-0.4,0.2-0.8,0.2-1.2
		c0-0.4,0-0.9-0.1-1.3c-0.2-0.8-0.6-1.7-1.1-2.3C9,2.3,8.4,1.8,7.8,1.5C7.2,1.2,6.6,1.1,6.2,1C5.9,1,5.6,1,5.6,1z"/>
	<path d="M5.6,11.7C6.6,11,7.8,10,8.5,9l-0.2,2l1.1,1.7C8.4,12.2,6.8,11.9,5.6,11.7z"/>
</svg>
