<?xml version="1.0" encoding="utf-8"?>
<!-- Generator: Adobe Illustrator 16.0.0, SVG Export Plug-In . SVG Version: 6.00 Build 0)  -->
<!DOCTYPE svg PUBLIC "-//W3C//DTD SVG 1.1//EN" "http://www.w3.org/Graphics/SVG/1.1/DTD/svg11.dtd">
<svg version="1.1" id="Layer_1" xmlns="http://www.w3.org/2000/svg" xmlns:xlink="http://www.w3.org/1999/xlink" x="0px" y="0px"
	 width="16.001px" height="14.94px" viewBox="0 0 16.001 14.94" enable-background="new 0 0 16.001 14.94" xml:space="preserve">
<g>
	<defs>
		<rect id="SVGID_1_" y="0" width="16.001" height="14.941"/>
	</defs>
	<clipPath id="SVGID_2_">
		<use xlink:href="#SVGID_1_"  overflow="visible"/>
	</clipPath>
	<path clip-path="url(#SVGID_2_)" fill-rule="evenodd" clip-rule="evenodd"  d="M3.204,12.869c0-2.761,2.239-5,5-5
		c2.761,0,5,2.239,5,5C13.204,15.631,3.204,15.631,3.204,12.869"/>
	<path clip-path="url(#SVGID_2_)" fill-rule="evenodd" clip-rule="evenodd"  d="M8.204,1.572
		c1.545,0,2.797,1.252,2.797,2.797c0,1.545-1.252,2.797-2.797,2.797c-1.545,0-2.797-1.252-2.797-2.797
		C5.407,2.824,6.659,1.572,8.204,1.572"/>
	<path clip-path="url(#SVGID_2_)" fill-rule="evenodd" clip-rule="evenodd"  d="M11.411,6.338
		c-0.238,0.379-0.522,0.727-0.874,1.004c2.153,0.912,3.667,3.045,3.667,5.527c0,0.021-0.005,0.04-0.006,0.061
		c1.069-0.342,1.803-0.886,1.803-1.633C16.001,8.676,13.978,6.55,11.411,6.338"/>
	<path clip-path="url(#SVGID_2_)" fill-rule="evenodd" clip-rule="evenodd"  d="M2.204,12.869
		c0-2.48,1.514-4.615,3.666-5.528C5.507,7.055,5.213,6.695,4.972,6.299C2.224,6.315,0,8.545,0,11.296
		c0,0.842,0.931,1.425,2.22,1.752C2.215,12.988,2.204,12.932,2.204,12.869"/>
	<path clip-path="url(#SVGID_2_)" fill-rule="evenodd" clip-rule="evenodd"  d="M12.001,4.369
		c0,0.382-0.075,0.742-0.183,1.089c1.144-0.352,1.979-1.403,1.979-2.662C13.798,1.252,12.546,0,11.001,0
		c-0.71,0-1.352,0.273-1.845,0.709C10.788,1.134,12.001,2.606,12.001,4.369"/>
	<path clip-path="url(#SVGID_2_)" fill-rule="evenodd" clip-rule="evenodd"  d="M4.625,5.556
		C4.498,5.181,4.407,4.789,4.407,4.369c0-1.653,1.07-3.049,2.549-3.568C6.451,0.306,5.762,0,5,0C3.456,0,2.204,1.252,2.204,2.797
		C2.204,4.213,3.259,5.371,4.625,5.556"/>
</g>
</svg>
