<?xml version="1.0" encoding="UTF-8" standalone="no"?>
<svg width="12px" height="18px" viewBox="0 0 12 18" version="1.1" xmlns="http://www.w3.org/2000/svg" xmlns:xlink="http://www.w3.org/1999/xlink">
  <g>
    <path d="M5.578125,17.6296296 L10.646454,7.81204148 C10.973109,7.11249778 11.15625,6.33150519 11.15625,5.50925926 C11.15625,2.46638519 8.659392,0 5.578125,0 C2.496858,0 0,2.46638519 0,5.50925926 C0,6.33150519 0.183141,7.11249778 0.509796,7.81204148 L5.578125,17.6296296 L5.578125,17.6296296 Z M5.578125,2.2037037 C7.425957,2.2037037 8.925,3.68424 8.925,5.50925926 C8.925,7.33427852 7.425957,8.81481481 5.578125,8.81481481 C3.730293,8.81481481 2.23125,7.33427852 2.23125,5.50925926 C2.23125,3.68424 3.730293,2.2037037 5.578125,2.2037037 L5.578125,2.2037037 Z"></path>
  </g>
</svg>
