<svg version="1.1" xmlns="http://www.w3.org/2000/svg" xmlns:xlink="http://www.w3.org/1999/xlink" x="0px" y="0px"
	 width="34.6px" height="34.6px" viewBox="0 0 34.6 34.6" style="enable-background:new 0 0 34.6 34.6;" xml:space="preserve">
<path d="M31.8,14.5h-8.9c-1.5,0-2.8-1.3-2.8-2.8V2.8c0-1.5-1.3-2.8-2.8-2.8h0c-1.5,0-2.8,1.3-2.8,2.8v8.9
	c0,1.5-1.3,2.8-2.8,2.8H2.8c-1.5,0-2.8,1.3-2.8,2.8v0c0,1.5,1.3,2.8,2.8,2.8h8.9c1.5,0,2.8,1.3,2.8,2.8v8.9c0,1.5,1.3,2.8,2.8,2.8h0
	c1.5,0,2.8-1.3,2.8-2.8v-8.9c0-1.5,1.3-2.8,2.8-2.8h8.9c1.5,0,2.8-1.3,2.8-2.8v0C34.6,15.7,33.3,14.5,31.8,14.5z"/>
</svg>
