<svg version="1.1" id="Calque_1" xmlns="http://www.w3.org/2000/svg" xmlns:xlink="http://www.w3.org/1999/xlink" x="0px" y="0px"
	 width="25.2px" height="25.2px" viewBox="0 0 25.2 25.2" style="enable-background:new 0 0 25.2 25.2;" xml:space="preserve">
<path d="M12.6,0C5.6,0,0,5.6,0,12.6c0,6.9,5.6,12.6,12.6,12.6c6.9,0,12.6-5.6,12.6-12.6
	C25.2,5.6,19.5,0,12.6,0z M16.7,13.5l-5.8,3.3c-0.2,0.1-0.3,0.1-0.5,0.1c-0.5,0-0.9-0.4-0.9-1V9.3c0-0.6,0.4-1,0.9-1
	c0.2,0,0.4,0,0.5,0.1l5.8,3.3c0.3,0.2,0.5,0.5,0.5,0.8C17.2,13,17,13.3,16.7,13.5z"/>
</svg>
