<svg version="1.1" id="Calque_1" xmlns="http://www.w3.org/2000/svg" xmlns:xlink="http://www.w3.org/1999/xlink" x="0px" y="0px"
	 width="25.2px" height="25.2px" viewBox="0 0 25.2 25.2" style="enable-background:new 0 0 25.2 25.2;" xml:space="preserve">
<path fill="#1da1f2" d="M12.6,0C5.6,0,0,5.6,0,12.6c0,6.9,5.6,12.6,12.6,12.6c6.9,0,12.6-5.6,12.6-12.6
	C25.2,5.6,19.5,0,12.6,0z M17.7,10.3c0,0.1,0,0.2,0,0.3c0,3.3-2.5,7-7,7c-1.4,0-2.7-0.4-3.8-1.1c0.2,0,0.4,0,0.6,0
	c1.2,0,2.2-0.4,3.1-1.1c-1.1,0-2-0.7-2.3-1.7c0.2,0,0.3,0,0.5,0c0.2,0,0.4,0,0.7-0.1c-1.1-0.2-2-1.2-2-2.4c0,0,0,0,0,0
	c0.3,0.2,0.7,0.3,1.1,0.3c-0.7-0.4-1.1-1.2-1.1-2.1c0-0.5,0.1-0.9,0.3-1.2c1.2,1.5,3,2.5,5.1,2.6c0-0.2-0.1-0.4-0.1-0.6
	c0-1.4,1.1-2.5,2.5-2.5c0.7,0,1.4,0.3,1.8,0.8c0.6-0.1,1.1-0.3,1.6-0.6c-0.2,0.6-0.6,1.1-1.1,1.4c0.5-0.1,1-0.2,1.4-0.4
	C18.6,9.5,18.2,10,17.7,10.3z"/>
</svg>
